<svg width="156" height="24" viewBox="0 0 156 24" fill="none" xmlns="http://www.w3.org/2000/svg">
<path d="M37.44 14.0068L33.8111 23.9897H23.6339L30.5113 5.06824H27.0572L20.1798 23.9897H10.0026L18.72 0H32.3514L37.44 14.0068Z" fill="#0542FC"/>
<path d="M19.234 23.9898C19.1724 24 19.1004 24 19.0387 24H12.3053C12.2333 24 12.1717 24 12.11 23.9898H19.234Z" fill="#0542FC"/>
<path d="M15.2761 0L7.79227 20.5801H2.38497L0 14.0068L5.08862 0H15.2761Z" fill="#0542FC"/>
<path d="M45.0093 22.3198V7.48808H48.5976V9.37195C49.0761 8.67422 49.704 8.126 50.4815 7.7273C51.259 7.3286 52.1461 7.12925 53.1428 7.12925C54.2791 7.12925 55.256 7.3585 56.0733 7.81701C56.8906 8.25558 57.5385 8.92341 58.017 9.82049C58.5552 8.98321 59.2729 8.32535 60.17 7.84691C61.087 7.36847 62.0837 7.12925 63.1602 7.12925C65.0541 7.12925 66.5193 7.70736 67.5559 8.8636C68.5926 9.9999 69.1109 11.6745 69.1109 13.8873V22.3198H65.5525V14.2461C65.5525 12.9104 65.2933 11.9037 64.775 11.2259C64.2567 10.5282 63.4792 10.1793 62.4426 10.1793C61.386 10.1793 60.5288 10.5681 59.8709 11.3455C59.2131 12.123 58.8842 13.2294 58.8842 14.6647V22.3198H55.2958V14.2461C55.2958 12.9104 55.0267 11.9037 54.4885 11.2259C53.9701 10.5282 53.1827 10.1793 52.1262 10.1793C51.0895 10.1793 50.2423 10.5681 49.5844 11.3455C48.9266 12.123 48.5976 13.2294 48.5976 14.6647V22.3198H45.0093ZM78.2436 22.6786C76.7684 22.6786 75.4327 22.3597 74.2366 21.7218C73.0604 21.0639 72.1235 20.1469 71.4258 18.9707C70.728 17.7945 70.3792 16.4389 70.3792 14.9039C70.3792 13.349 70.728 11.9934 71.4258 10.8372C72.1235 9.66101 73.0704 8.75396 74.2665 8.11603C75.4626 7.45818 76.7883 7.12925 78.2436 7.12925C79.7387 7.12925 81.0744 7.45818 82.2505 8.11603C83.4267 8.75396 84.3637 9.66101 85.0614 10.8372C85.7591 11.9934 86.108 13.349 86.108 14.9039C86.108 16.4389 85.7591 17.7945 85.0614 18.9707C84.3637 20.1469 83.4167 21.0639 82.2206 21.7218C81.0445 22.3597 79.7188 22.6786 78.2436 22.6786ZM78.2436 19.5688C79.0011 19.5688 79.6889 19.3993 80.3069 19.0604C80.9448 18.7016 81.4531 18.1833 81.8319 17.5055C82.2107 16.8077 82.4 15.9406 82.4 14.9039C82.4 13.8673 82.2107 13.0101 81.8319 12.3323C81.4531 11.6346 80.9448 11.1163 80.3069 10.7774C79.6889 10.4185 79.0111 10.2391 78.2735 10.2391C77.5159 10.2391 76.8182 10.4185 76.1803 10.7774C75.5424 11.1163 75.034 11.6346 74.6553 12.3323C74.2765 13.0101 74.0871 13.8673 74.0871 14.9039C74.0871 15.9406 74.2765 16.8077 74.6553 17.5055C75.034 18.1833 75.5324 18.7016 76.1504 19.0604C76.7883 19.3993 77.486 19.5688 78.2436 19.5688ZM87.3092 22.3198V7.48808H90.8975V9.79058C91.3959 8.97325 92.0637 8.32535 92.901 7.84691C93.7582 7.36847 94.7351 7.12925 95.8315 7.12925C97.6655 7.12925 99.0909 7.70736 100.108 8.8636C101.124 9.9999 101.633 11.6745 101.633 13.8873V22.3198H98.0443V14.2461C98.0443 12.9104 97.7652 11.9037 97.207 11.2259C96.6688 10.5282 95.8415 10.1793 94.7251 10.1793C93.6287 10.1793 92.7116 10.5681 91.974 11.3455C91.2564 12.123 90.8975 13.2294 90.8975 14.6647V22.3198H87.3092ZM103.467 22.3198V7.48808H107.055V22.3198H103.467ZM103.467 4.94635V1.26832H107.085V4.94635H103.467ZM113.631 22.3198L108.159 7.48808H111.897L115.814 18.9109L119.701 7.48808H123.439L117.937 22.3198H113.631ZM130.396 22.6786C128.901 22.6786 127.575 22.3597 126.419 21.7218C125.283 21.0639 124.386 20.1568 123.728 19.0006C123.09 17.8444 122.771 16.5087 122.771 14.9937C122.771 13.4586 123.09 12.1031 123.728 10.9269C124.366 9.73078 125.263 8.8038 126.419 8.14594C127.575 7.46814 128.911 7.12925 130.426 7.12925C131.881 7.12925 133.157 7.44821 134.253 8.08613C135.37 8.72406 136.227 9.59123 136.825 10.6877C137.443 11.7642 137.752 12.9802 137.752 14.3358C137.752 14.5351 137.752 14.7544 137.752 14.9937C137.752 15.2329 137.732 15.492 137.692 15.7711H125.372V13.4387H134.134C134.074 12.4021 133.695 11.5847 132.997 10.9867C132.3 10.3687 131.443 10.0597 130.426 10.0597C129.688 10.0597 129 10.2292 128.363 10.5681C127.745 10.887 127.246 11.3754 126.867 12.0333C126.489 12.6712 126.299 13.4886 126.299 14.4853V15.3525C126.299 16.2695 126.479 17.0569 126.838 17.7148C127.216 18.3727 127.715 18.871 128.333 19.2099C128.951 19.5488 129.638 19.7183 130.396 19.7183C131.213 19.7183 131.901 19.5389 132.459 19.18C133.017 18.8013 133.426 18.3029 133.685 17.6849H137.333C137.074 18.6418 136.616 19.499 135.958 20.2565C135.32 20.9941 134.532 21.5822 133.596 22.0208C132.659 22.4594 131.592 22.6786 130.396 22.6786ZM146.383 22.6786C144.908 22.6786 143.572 22.3597 142.376 21.7218C141.2 21.0639 140.263 20.1469 139.565 18.9707C138.868 17.7945 138.519 16.4389 138.519 14.9039C138.519 13.349 138.868 11.9934 139.565 10.8372C140.263 9.66101 141.21 8.75396 142.406 8.11603C143.602 7.45818 144.928 7.12925 146.383 7.12925C147.878 7.12925 149.214 7.45818 150.39 8.11603C151.566 8.75396 152.503 9.66101 153.201 10.8372C153.899 11.9934 154.248 13.349 154.248 14.9039C154.248 16.4389 153.899 17.7945 153.201 18.9707C152.503 20.1469 151.556 21.0639 150.36 21.7218C149.184 22.3597 147.858 22.6786 146.383 22.6786ZM146.383 19.5688C147.141 19.5688 147.828 19.3993 148.446 19.0604C149.084 18.7016 149.593 18.1833 149.971 17.5055C150.35 16.8077 150.54 15.9406 150.54 14.9039C150.54 13.8673 150.35 13.0101 149.971 12.3323C149.593 11.6346 149.084 11.1163 148.446 10.7774C147.828 10.4185 147.151 10.2391 146.413 10.2391C145.656 10.2391 144.958 10.4185 144.32 10.7774C143.682 11.1163 143.174 11.6346 142.795 12.3323C142.416 13.0101 142.227 13.8673 142.227 14.9039C142.227 15.9406 142.416 16.8077 142.795 17.5055C143.174 18.1833 143.672 18.7016 144.29 19.0604C144.928 19.3993 145.626 19.5688 146.383 19.5688Z" fill="#111729"/>
</svg>
