<svg width="28" height="28" viewBox="0 0 28 28" fill="none" xmlns="http://www.w3.org/2000/svg">
<path d="M25.375 10.5C25.375 10.0359 25.1906 9.59075 24.8624 9.26256C24.5343 8.93437 24.0891 8.75 23.625 8.75H20.125V5.25C20.125 4.78587 19.9406 4.34075 19.6124 4.01256C19.2843 3.68437 18.8391 3.5 18.375 3.5H4.375C3.91087 3.5 3.46576 3.68437 3.13757 4.01256C2.80938 4.34075 2.625 4.78587 2.625 5.25V19.25C2.62454 19.4157 2.67172 19.578 2.76092 19.7176C2.85012 19.8573 2.97759 19.9683 3.12813 20.0375C3.27557 20.1096 3.44066 20.1376 3.60362 20.1182C3.76658 20.0988 3.92048 20.0328 4.04688 19.9281L7.875 16.8328V20.125C7.875 20.5891 8.05938 21.0342 8.38757 21.3624C8.71576 21.6906 9.16087 21.875 9.625 21.875H19.8625L23.9531 25.1781C24.0795 25.2828 24.2334 25.3488 24.3964 25.3682C24.5593 25.3876 24.7244 25.3596 24.8719 25.2875C25.0224 25.2183 25.1499 25.1073 25.2391 24.9676C25.3283 24.828 25.3755 24.6657 25.375 24.5V10.5ZM20.7156 20.3219C20.5625 20.1934 20.3686 20.1236 20.1688 20.125H9.625V16.625H18.375C18.8391 16.625 19.2843 16.4406 19.6124 16.1124C19.9406 15.7842 20.125 15.3391 20.125 14.875V10.5H23.625V22.6625L20.7156 20.3219Z" fill="black"/>
<path d="M25.375 10.5C25.375 10.0359 25.1906 9.59075 24.8624 9.26256C24.5343 8.93437 24.0891 8.75 23.625 8.75H20.125V5.25C20.125 4.78587 19.9406 4.34075 19.6124 4.01256C19.2843 3.68437 18.8391 3.5 18.375 3.5H4.375C3.91087 3.5 3.46576 3.68437 3.13757 4.01256C2.80938 4.34075 2.625 4.78587 2.625 5.25V19.25C2.62454 19.4157 2.67172 19.578 2.76092 19.7176C2.85012 19.8573 2.97759 19.9683 3.12813 20.0375C3.27557 20.1096 3.44066 20.1376 3.60362 20.1182C3.76658 20.0988 3.92048 20.0328 4.04688 19.9281L7.875 16.8328V20.125C7.875 20.5891 8.05938 21.0342 8.38757 21.3624C8.71576 21.6906 9.16087 21.875 9.625 21.875H19.8625L23.9531 25.1781C24.0795 25.2828 24.2334 25.3488 24.3964 25.3682C24.5593 25.3876 24.7244 25.3596 24.8719 25.2875C25.0224 25.2183 25.1499 25.1073 25.2391 24.9676C25.3283 24.828 25.3755 24.6657 25.375 24.5V10.5ZM20.7156 20.3219C20.5625 20.1934 20.3686 20.1236 20.1688 20.125H9.625V16.625H18.375C18.8391 16.625 19.2843 16.4406 19.6124 16.1124C19.9406 15.7842 20.125 15.3391 20.125 14.875V10.5H23.625V22.6625L20.7156 20.3219Z" fill="url(#paint0_linear_6404_989)"/>
<defs>
<linearGradient id="paint0_linear_6404_989" x1="14.0643" y1="-6.34337" x2="13.5473" y2="25.3668" gradientUnits="userSpaceOnUse">
<stop stop-color="#93D2FF"/>
<stop offset="1" stop-color="#0542FC"/>
</linearGradient>
</defs>
</svg>
