<svg width="28" height="28" viewBox="0 0 28 28" fill="none" xmlns="http://www.w3.org/2000/svg">
<path d="M18.375 24.5C18.375 24.7321 18.2828 24.9546 18.1187 25.1187C17.9546 25.2828 17.7321 25.375 17.5 25.375H10.5C10.2679 25.375 10.0454 25.2828 9.88128 25.1187C9.71719 24.9546 9.625 24.7321 9.625 24.5C9.625 24.2679 9.71719 24.0454 9.88128 23.8813C10.0454 23.7172 10.2679 23.625 10.5 23.625H17.5C17.7321 23.625 17.9546 23.7172 18.1187 23.8813C18.2828 24.0454 18.375 24.2679 18.375 24.5ZM25.375 7V19.25C25.3721 19.9453 25.0946 20.6113 24.603 21.103C24.1113 21.5946 23.4453 21.8721 22.75 21.875H5.25C4.55469 21.8721 3.88869 21.5946 3.39703 21.103C2.90537 20.6113 2.62788 19.9453 2.625 19.25V7C2.62788 6.30469 2.90537 5.63869 3.39703 5.14703C3.88869 4.65537 4.55469 4.37788 5.25 4.375H22.75C23.4453 4.37788 24.1113 4.65537 24.603 5.14703C25.0946 5.63869 25.3721 6.30469 25.375 7V7ZM17.9375 13.125C17.9377 12.9786 17.9006 12.8345 17.8298 12.7063C17.759 12.5781 17.6568 12.47 17.5328 12.3922L12.7203 9.32969C12.5894 9.2447 12.4379 9.19678 12.2819 9.191C12.1259 9.18522 11.9712 9.22181 11.8344 9.29688C11.6961 9.3715 11.5805 9.48197 11.4997 9.61668C11.4189 9.7514 11.3758 9.9054 11.375 10.0625V16.1875C11.3758 16.3446 11.4189 16.4986 11.4997 16.6333C11.5805 16.768 11.6961 16.8785 11.8344 16.9531C11.9705 17.0306 12.1255 17.0685 12.282 17.0627C12.4385 17.0569 12.5903 17.0076 12.7203 16.9203L17.5328 13.8578C17.6568 13.78 17.759 13.6719 17.8298 13.5437C17.9006 13.4155 17.9377 13.2714 17.9375 13.125V13.125Z" fill="#CDD5E0"/>
</svg>
