<svg width="16" height="16" viewBox="0 0 16 16" fill="none" xmlns="http://www.w3.org/2000/svg">
<g clip-path="url(#clip0_6404_680)">
<path d="M2.99999 14.6667V11.3333M2.99999 4.66666V1.33333M1.33333 2.99999H4.66666M1.33333 13H4.66666M8.66666 1.99999L7.51054 5.0059C7.32254 5.49472 7.22853 5.73913 7.08235 5.94472C6.95279 6.12693 6.79359 6.28612 6.61139 6.41568C6.4058 6.56186 6.16139 6.65587 5.67257 6.84388L2.66666 7.99999L5.67257 9.15611C6.16139 9.34412 6.4058 9.43812 6.61139 9.58431C6.79359 9.71387 6.95279 9.87306 7.08235 10.0553C7.22853 10.2609 7.32254 10.5053 7.51054 10.9941L8.66666 14L9.82278 10.9941C10.0108 10.5053 10.1048 10.2609 10.251 10.0553C10.3805 9.87306 10.5397 9.71387 10.7219 9.58431C10.9275 9.43812 11.1719 9.34412 11.6608 9.15611L14.6667 7.99999L11.6608 6.84388C11.1719 6.65587 10.9275 6.56186 10.7219 6.41568C10.5397 6.28612 10.3805 6.12693 10.251 5.94472C10.1048 5.73913 10.0108 5.49472 9.82278 5.0059L8.66666 1.99999Z" stroke="#0542FC" stroke-width="1.2" stroke-linecap="round" stroke-linejoin="round"/>
</g>
<defs>
<clipPath id="clip0_6404_680">
<rect width="16" height="16" fill="white"/>
</clipPath>
</defs>
</svg>
