<svg width="18" height="18" viewBox="0 0 18 18" fill="none" xmlns="http://www.w3.org/2000/svg">
<path d="M9.75235 12.3399L8.40235 16.0031C8.3624 16.1108 8.29045 16.2036 8.19618 16.2692C8.10191 16.3348 7.98984 16.3699 7.87501 16.3699C7.76018 16.3699 7.64811 16.3348 7.55384 16.2692C7.45957 16.2036 7.38762 16.1108 7.34767 16.0031L5.99767 12.3399C5.96918 12.2625 5.92425 12.1923 5.86598 12.134C5.80771 12.0758 5.73749 12.0308 5.66017 12.0024L1.99689 10.6524C1.88924 10.6124 1.79639 10.5405 1.73083 10.4462C1.66527 10.3519 1.63013 10.2398 1.63013 10.125C1.63013 10.0102 1.66527 9.89811 1.73083 9.80384C1.79639 9.70957 1.88924 9.63762 1.99689 9.59767L5.66017 8.24767C5.73749 8.21918 5.80771 8.17425 5.86598 8.11598C5.92425 8.05771 5.96918 7.98749 5.99767 7.91017L7.34767 4.24689C7.38762 4.13924 7.45957 4.04639 7.55384 3.98083C7.64811 3.91527 7.76018 3.88013 7.87501 3.88013C7.98984 3.88013 8.10191 3.91527 8.19618 3.98083C8.29045 4.04639 8.3624 4.13924 8.40235 4.24689L9.75235 7.91017C9.78084 7.98749 9.82578 8.05771 9.88404 8.11598C9.94231 8.17425 10.0125 8.21918 10.0899 8.24767L13.7531 9.59767C13.8608 9.63762 13.9536 9.70957 14.0192 9.80384C14.0848 9.89811 14.1199 10.0102 14.1199 10.125C14.1199 10.2398 14.0848 10.3519 14.0192 10.4462C13.9536 10.5405 13.8608 10.6124 13.7531 10.6524L10.0899 12.0024C10.0125 12.0308 9.94231 12.0758 9.88404 12.134C9.82578 12.1923 9.78084 12.2625 9.75235 12.3399V12.3399Z" stroke="white" stroke-width="1.2" stroke-linecap="round" stroke-linejoin="round"/>
<path d="M12.375 1.125V4.5" stroke="white" stroke-width="1.2" stroke-linecap="round" stroke-linejoin="round"/>
<path d="M14.0625 2.8125H10.6875" stroke="white" stroke-width="1.2" stroke-linecap="round" stroke-linejoin="round"/>
<path d="M15.75 5.0625V7.3125" stroke="white" stroke-width="1.2" stroke-linecap="round" stroke-linejoin="round"/>
<path d="M16.875 6.1875H14.625" stroke="white" stroke-width="1.2" stroke-linecap="round" stroke-linejoin="round"/>
</svg>
