<svg width="22" height="22" viewBox="0 0 22 22" fill="none" xmlns="http://www.w3.org/2000/svg">
<g clip-path="url(#clip0_6404_1303)">
<path d="M6.92092 19.9372C15.2208 19.9372 19.7617 13.0592 19.7617 7.0964C19.7617 6.90304 19.7574 6.70538 19.7488 6.51203C20.6322 5.8732 21.3945 5.08193 21.9999 4.17538C21.1773 4.54141 20.3038 4.78046 19.4094 4.88437C20.3511 4.31986 21.0563 3.43304 21.3941 2.38831C20.5081 2.91337 19.5392 3.28376 18.5289 3.48359C17.8482 2.76029 16.9482 2.28138 15.968 2.12091C14.9878 1.96043 13.982 2.12732 13.1062 2.59578C12.2304 3.06424 11.5333 3.80818 11.1226 4.71256C10.712 5.61695 10.6107 6.63143 10.8345 7.59914C9.04056 7.50911 7.28555 7.04309 5.68326 6.23129C4.08096 5.41948 2.66716 4.28001 1.53349 2.88675C0.957305 3.88017 0.780991 5.0557 1.04038 6.17445C1.29978 7.29319 1.97541 8.27119 2.92998 8.90968C2.21335 8.88693 1.51242 8.69399 0.885095 8.34679V8.40265C0.884453 9.44517 1.24486 10.4557 1.90506 11.2626C2.56525 12.0694 3.48449 12.6227 4.5065 12.8284C3.84266 13.0101 3.14592 13.0365 2.47021 12.9058C2.75861 13.8023 3.31971 14.5865 4.07523 15.1488C4.83074 15.7112 5.74297 16.0236 6.68459 16.0425C5.08599 17.2982 3.11127 17.9793 1.07845 17.9761C0.717952 17.9755 0.357805 17.9534 -6.10352e-05 17.9099C2.06506 19.2348 4.46734 19.9385 6.92092 19.9372Z" fill="#111729"/>
</g>
<defs>
<clipPath id="clip0_6404_1303">
<rect width="22" height="22" fill="white"/>
</clipPath>
</defs>
</svg>
