<svg width="28" height="28" viewBox="0 0 28 28" fill="none" xmlns="http://www.w3.org/2000/svg">
<path d="M24.5 16.625V21C24.5 21.4641 24.3156 21.9092 23.9874 22.2374C23.6592 22.5656 23.2141 22.75 22.75 22.75H14.875V24.5C14.875 24.7321 14.7828 24.9546 14.6187 25.1187C14.4546 25.2828 14.2321 25.375 14 25.375C13.7679 25.375 13.5454 25.2828 13.3813 25.1187C13.2172 24.9546 13.125 24.7321 13.125 24.5V22.75H5.25C4.78587 22.75 4.34075 22.5656 4.01256 22.2374C3.68437 21.9092 3.5 21.4641 3.5 21V16.625C3.5 16.1609 3.68437 15.7158 4.01256 15.3876C4.34075 15.0594 4.78587 14.875 5.25 14.875H13.125V13.125H7.875C7.41087 13.125 6.96575 12.9406 6.63756 12.6124C6.30937 12.2842 6.125 11.8391 6.125 11.375V7C6.125 6.53587 6.30937 6.09075 6.63756 5.76256C6.96575 5.43437 7.41087 5.25 7.875 5.25H13.125V3.5C13.125 3.26794 13.2172 3.04538 13.3813 2.88128C13.5454 2.71719 13.7679 2.625 14 2.625C14.2321 2.625 14.4546 2.71719 14.6187 2.88128C14.7828 3.04538 14.875 3.26794 14.875 3.5V5.25H20.125C20.5891 5.25 21.0342 5.43437 21.3624 5.76256C21.6906 6.09075 21.875 6.53587 21.875 7V11.375C21.875 11.8391 21.6906 12.2842 21.3624 12.6124C21.0342 12.9406 20.5891 13.125 20.125 13.125H14.875V14.875H22.75C23.2141 14.875 23.6592 15.0594 23.9874 15.3876C24.3156 15.7158 24.5 16.1609 24.5 16.625Z" fill="#CDD5E0"/>
</svg>
