<svg width="16" height="16" viewBox="0 0 16 16" fill="none" xmlns="http://www.w3.org/2000/svg">
<path d="M5.13799 2.19526C4.87764 1.93491 4.45553 1.93491 4.19518 2.19526L1.52851 4.86193C1.26816 5.12228 1.26816 5.54439 1.52851 5.80474C1.78886 6.06509 2.21097 6.06509 2.47132 5.80474L3.99992 4.27614L3.99992 13.3333C3.99992 13.7015 4.2984 14 4.66659 14C5.03478 14 5.33325 13.7015 5.33325 13.3333L5.33325 4.27614L6.86185 5.80474C7.1222 6.06509 7.54431 6.06509 7.80466 5.80474C8.06501 5.54439 8.06501 5.12228 7.80466 4.86193L5.13799 2.19526Z" fill="white"/>
<path d="M11.9999 11.7239V2.66667C11.9999 2.29848 11.7014 2 11.3333 2C10.9651 2 10.6666 2.29848 10.6666 2.66667V11.7239L9.13799 10.1953C8.87764 9.93491 8.45553 9.93491 8.19518 10.1953C7.93483 10.4556 7.93483 10.8777 8.19518 11.1381L10.8618 13.8047C11.1222 14.0651 11.5443 14.0651 11.8047 13.8047L14.4713 11.1381C14.7317 10.8777 14.7317 10.4556 14.4713 10.1953C14.211 9.93491 13.7889 9.93491 13.5285 10.1953L11.9999 11.7239Z" fill="white"/>
</svg>
