<svg width="16" height="16" viewBox="0 0 16 16" fill="none" xmlns="http://www.w3.org/2000/svg">
<path d="M5.36962 2.60732C5.70055 2.44592 5.83797 2.04681 5.67657 1.71588C5.51516 1.38495 5.11605 1.24753 4.78512 1.40893C3.39321 2.08781 2.25194 3.18992 1.5249 4.5573C0.79785 5.92467 0.522349 7.48711 0.73788 9.02069C0.789122 9.3853 1.12623 9.63933 1.49084 9.58809C1.85545 9.53685 2.10948 9.19973 2.05824 8.83513C1.88189 7.58038 2.1073 6.30202 2.70216 5.18326C3.29702 4.0645 4.23078 3.16277 5.36962 2.60732Z" fill="white"/>
<path d="M10.3231 1.71588C10.4845 1.38495 10.8836 1.24753 11.2145 1.40893C12.6064 2.08781 13.7477 3.18992 14.4747 4.55729C15.2018 5.92467 15.4773 7.48711 15.2617 9.02069C15.2105 9.38529 14.8734 9.63933 14.5088 9.58809C14.1442 9.53684 13.8901 9.19973 13.9414 8.83512C14.1177 7.58038 13.8923 6.30202 13.2975 5.18326C12.7026 4.0645 11.7688 3.16277 10.63 2.60732C10.2991 2.44592 10.1616 2.04681 10.3231 1.71588Z" fill="white"/>
<path d="M3.54186 13.0019C3.75828 12.704 4.17519 12.638 4.47306 12.8544C5.49815 13.5992 6.7327 14.0003 7.99977 14.0003C9.26685 14.0003 10.5014 13.5992 11.5265 12.8544C11.8244 12.638 12.2413 12.704 12.4577 13.0019C12.6741 13.2998 12.6081 13.7167 12.3102 13.9331C11.0573 14.8434 9.54842 15.3337 7.99977 15.3337C6.45112 15.3337 4.94223 14.8434 3.68935 13.9331C3.39148 13.7167 3.32544 13.2998 3.54186 13.0019Z" fill="white"/>
<path d="M8.65032 3.71741C8.57627 3.65455 8.46387 3.57085 8.30878 3.52046C8.10794 3.4552 7.89159 3.4552 7.69075 3.52046C7.53566 3.57085 7.42326 3.65455 7.34921 3.71741C7.28531 3.77166 7.21828 3.83874 7.16215 3.89492L3.89457 7.16249C3.8384 7.21862 3.77131 7.28566 3.71707 7.34956C3.6542 7.42361 3.57051 7.53601 3.52011 7.6911C3.45486 7.89194 3.45486 8.10829 3.52011 8.30913C3.57051 8.46422 3.6542 8.57662 3.71707 8.65067C3.77132 8.71457 3.83841 8.78161 3.89458 8.83774L7.16214 12.1053C7.21827 12.1615 7.28531 12.2286 7.34921 12.2828C7.42326 12.3457 7.53566 12.4294 7.69075 12.4798C7.89159 12.545 8.10794 12.545 8.30878 12.4798C8.46387 12.4294 8.57627 12.3457 8.65032 12.2828C8.71423 12.2286 8.78127 12.1615 8.8374 12.1053L12.105 8.83774C12.1611 8.78161 12.2282 8.71457 12.2825 8.65067C12.3453 8.57662 12.429 8.46422 12.4794 8.30913C12.5447 8.10829 12.5447 7.89194 12.4794 7.6911C12.429 7.53601 12.3453 7.42361 12.2825 7.34956C12.2282 7.28565 12.1611 7.21861 12.1049 7.16248L8.83739 3.89492C8.78126 3.83874 8.71422 3.77166 8.65032 3.71741Z" fill="white"/>
</svg>
