<svg width="16" height="16" viewBox="0 0 16 16" fill="none" xmlns="http://www.w3.org/2000/svg">
<g clip-path="url(#clip0_6404_2532)">
<path d="M8 16C12.4183 16 16 12.4183 16 7.99998C16 3.5817 12.4183 -2.28882e-05 8 -2.28882e-05C3.58172 -2.28882e-05 0 3.5817 0 7.99998C0 12.4183 3.58172 16 8 16Z" fill="#26A17B"/>
<path fill-rule="evenodd" clip-rule="evenodd" d="M8.9609 8.69164V8.69064C8.9059 8.69464 8.6224 8.71164 7.9899 8.71164C7.4849 8.71164 7.1294 8.69664 7.0044 8.69064V8.69214C5.0604 8.60664 3.6094 8.26814 3.6094 7.86314C3.6094 7.45864 5.0604 7.12014 7.0044 7.03314V8.35514C7.1314 8.36414 7.4954 8.38564 7.9984 8.38564C8.6019 8.38564 8.9044 8.36064 8.9609 8.35564V7.03414C10.9009 7.12064 12.3484 7.45914 12.3484 7.86314C12.3484 8.26814 10.9009 8.60564 8.9609 8.69164ZM8.9609 6.89664V5.71364H11.6679V3.90964H4.2974V5.71364H7.0044V6.89614C4.8044 6.99714 3.1499 7.43314 3.1499 7.95514C3.1499 8.47714 4.8044 8.91264 7.0044 9.01414V12.8051H8.9609V9.01314C11.1574 8.91214 12.8079 8.47664 12.8079 7.95514C12.8079 7.43364 11.1574 6.99814 8.9609 6.89664Z" fill="white"/>
</g>
<defs>
<clipPath id="clip0_6404_2532">
<rect width="16" height="16" rx="3.62027" fill="white"/>
</clipPath>
</defs>
</svg>
