<svg width="47" height="25" viewBox="0 0 47 25" fill="none" xmlns="http://www.w3.org/2000/svg">
<g filter="url(#filter0_dii_6513_742)">
<rect x="2" y="1" width="43" height="21" rx="4" fill="#2A3036" shape-rendering="crispEdges"/>
<path d="M10.848 17.2287C10.4536 17.2287 10.0923 17.1326 9.7642 16.9403C9.43608 16.7448 9.17424 16.483 8.97869 16.1548C8.78646 15.8267 8.69034 15.4654 8.69034 15.071C8.69034 14.6733 8.78646 14.3104 8.97869 13.9822C9.17424 13.6541 9.43608 13.3923 9.7642 13.1967C10.0923 13.0012 10.4536 12.9034 10.848 12.9034H12.0014V10.9048H10.848C10.4536 10.9048 10.0923 10.8087 9.7642 10.6165C9.43608 10.4209 9.17424 10.1607 8.97869 9.83594C8.78646 9.50781 8.69034 9.14489 8.69034 8.74716C8.69034 8.34943 8.78646 7.98816 8.97869 7.66335C9.17424 7.33523 9.43608 7.07505 9.7642 6.88281C10.0923 6.68726 10.4536 6.58949 10.848 6.58949C11.2457 6.58949 11.6087 6.68726 11.9368 6.88281C12.2649 7.07505 12.5268 7.33523 12.7223 7.66335C12.9179 7.98816 13.0156 8.34943 13.0156 8.74716V9.89062H15.0142V8.74716C15.0142 8.34943 15.1103 7.98816 15.3026 7.66335C15.4981 7.33523 15.7583 7.07505 16.0831 6.88281C16.4112 6.68726 16.7741 6.58949 17.1719 6.58949C17.5696 6.58949 17.9309 6.68726 18.2557 6.88281C18.5838 7.07505 18.844 7.33523 19.0362 7.66335C19.2318 7.98816 19.3295 8.34943 19.3295 8.74716C19.3295 9.14489 19.2318 9.50781 19.0362 9.83594C18.844 10.1607 18.5838 10.4209 18.2557 10.6165C17.9309 10.8087 17.5696 10.9048 17.1719 10.9048H16.0284V12.9034H17.1719C17.5696 12.9034 17.9309 13.0012 18.2557 13.1967C18.5838 13.3923 18.844 13.6541 19.0362 13.9822C19.2318 14.3104 19.3295 14.6733 19.3295 15.071C19.3295 15.4654 19.2318 15.8267 19.0362 16.1548C18.844 16.483 18.5838 16.7448 18.2557 16.9403C17.9309 17.1326 17.5696 17.2287 17.1719 17.2287C16.7741 17.2287 16.4112 17.1326 16.0831 16.9403C15.7583 16.7448 15.4981 16.483 15.3026 16.1548C15.1103 15.8267 15.0142 15.4654 15.0142 15.071V13.9176H13.0156V15.071C13.0156 15.4654 12.9179 15.8267 12.7223 16.1548C12.5268 16.483 12.2649 16.7448 11.9368 16.9403C11.6087 17.1326 11.2457 17.2287 10.848 17.2287ZM10.848 16.2145C11.0601 16.2145 11.2524 16.1631 11.4247 16.0604C11.6004 15.9576 11.7396 15.8201 11.8423 15.6477C11.9484 15.4721 12.0014 15.2798 12.0014 15.071V13.9176H10.848C10.6392 13.9176 10.447 13.9706 10.2713 14.0767C10.099 14.1795 9.96141 14.3187 9.85866 14.4943C9.75592 14.6667 9.70455 14.8589 9.70455 15.071C9.70455 15.2798 9.75592 15.4721 9.85866 15.6477C9.96141 15.8201 10.099 15.9576 10.2713 16.0604C10.447 16.1631 10.6392 16.2145 10.848 16.2145ZM10.848 9.89062H12.0014V8.74716C12.0014 8.53504 11.9484 8.3428 11.8423 8.17045C11.7396 7.99811 11.6004 7.86056 11.4247 7.75781C11.2524 7.65507 11.0601 7.60369 10.848 7.60369C10.6392 7.60369 10.447 7.65507 10.2713 7.75781C10.099 7.86056 9.96141 7.99811 9.85866 8.17045C9.75592 8.3428 9.70455 8.53504 9.70455 8.74716C9.70455 8.95928 9.75592 9.15317 9.85866 9.32883C9.96141 9.50118 10.099 9.63873 10.2713 9.74148C10.447 9.84091 10.6392 9.89062 10.848 9.89062ZM16.0284 9.89062H17.1719C17.384 9.89062 17.5762 9.84091 17.7486 9.74148C17.9209 9.63873 18.0585 9.50118 18.1612 9.32883C18.264 9.15317 18.3153 8.95928 18.3153 8.74716C18.3153 8.53504 18.264 8.3428 18.1612 8.17045C18.0585 7.99811 17.9209 7.86056 17.7486 7.75781C17.5762 7.65507 17.384 7.60369 17.1719 7.60369C16.9598 7.60369 16.7659 7.65507 16.5902 7.75781C16.4179 7.86056 16.2803 7.99811 16.1776 8.17045C16.0781 8.3428 16.0284 8.53504 16.0284 8.74716V9.89062ZM17.1719 16.2145C17.384 16.2145 17.5762 16.1631 17.7486 16.0604C17.9209 15.9576 18.0585 15.8201 18.1612 15.6477C18.264 15.4721 18.3153 15.2798 18.3153 15.071C18.3153 14.8589 18.264 14.6667 18.1612 14.4943C18.0585 14.3187 17.9209 14.1795 17.7486 14.0767C17.5762 13.9706 17.384 13.9176 17.1719 13.9176H16.0284V15.071C16.0284 15.2798 16.0781 15.4721 16.1776 15.6477C16.2803 15.8201 16.4179 15.9576 16.5902 16.0604C16.7659 16.1631 16.9598 16.2145 17.1719 16.2145ZM13.0156 12.9034H15.0142V10.9048H13.0156V12.9034ZM25.0705 15.2102V8.64773H26.1841V15.2102H25.0705ZM22.3461 12.4858V11.3722H28.9086V12.4858H22.3461ZM31.4751 17V6.81818H32.7081V11.8693H32.8274L37.4013 6.81818H39.0121L34.7365 11.4119L39.0121 17H37.5206L33.9808 12.267L32.7081 13.6989V17H31.4751Z" fill="#677489"/>
</g>
<defs>
<filter id="filter0_dii_6513_742" x="0" y="-1" width="47" height="26" filterUnits="userSpaceOnUse" color-interpolation-filters="sRGB">
<feFlood flood-opacity="0" result="BackgroundImageFix"/>
<feColorMatrix in="SourceAlpha" type="matrix" values="0 0 0 0 0 0 0 0 0 0 0 0 0 0 0 0 0 0 127 0" result="hardAlpha"/>
<feOffset dy="1"/>
<feGaussianBlur stdDeviation="1"/>
<feComposite in2="hardAlpha" operator="out"/>
<feColorMatrix type="matrix" values="0 0 0 0 0.0658798 0 0 0 0 0.0919093 0 0 0 0 0.117939 0 0 0 0.28 0"/>
<feBlend mode="normal" in2="BackgroundImageFix" result="effect1_dropShadow_6513_742"/>
<feBlend mode="normal" in="SourceGraphic" in2="effect1_dropShadow_6513_742" result="shape"/>
<feColorMatrix in="SourceAlpha" type="matrix" values="0 0 0 0 0 0 0 0 0 0 0 0 0 0 0 0 0 0 127 0" result="hardAlpha"/>
<feOffset dy="-2"/>
<feGaussianBlur stdDeviation="1"/>
<feComposite in2="hardAlpha" operator="arithmetic" k2="-1" k3="1"/>
<feColorMatrix type="matrix" values="0 0 0 0 0.0392157 0 0 0 0 0.0509804 0 0 0 0 0.0705882 0 0 0 0.04 0"/>
<feBlend mode="normal" in2="shape" result="effect2_innerShadow_6513_742"/>
<feColorMatrix in="SourceAlpha" type="matrix" values="0 0 0 0 0 0 0 0 0 0 0 0 0 0 0 0 0 0 127 0" result="hardAlpha"/>
<feMorphology radius="1" operator="erode" in="SourceAlpha" result="effect3_innerShadow_6513_742"/>
<feOffset/>
<feComposite in2="hardAlpha" operator="arithmetic" k2="-1" k3="1"/>
<feColorMatrix type="matrix" values="0 0 0 0 0.0392157 0 0 0 0 0.0509804 0 0 0 0 0.0705882 0 0 0 0.16 0"/>
<feBlend mode="normal" in2="effect2_innerShadow_6513_742" result="effect3_innerShadow_6513_742"/>
</filter>
</defs>
</svg>
