<svg width="26" height="26" viewBox="0 0 26 26" fill="none" xmlns="http://www.w3.org/2000/svg">
<g filter="url(#filter0_d_6513_605)">
<path d="M12 4.06667C12 3.6933 12 3.50661 11.9273 3.36401C11.8634 3.23857 11.7614 3.13658 11.636 3.07266C11.4934 3 11.3067 3 10.9333 3H8.77431C8.42288 2.99999 8.11969 2.99998 7.86998 3.02038C7.60642 3.04192 7.34427 3.08946 7.09202 3.21799C6.7157 3.40974 6.40974 3.7157 6.21799 4.09202C6.08946 4.34427 6.04192 4.60642 6.02038 4.86998C5.99998 5.11969 5.99999 5.42286 6 5.77428V7.93333C6 8.3067 6 8.49339 6.07266 8.63599C6.13658 8.76144 6.23857 8.86342 6.36401 8.92734C6.50661 9 6.6933 9 7.06667 9H10.9333C11.3067 9 11.4934 9 11.636 8.92734C11.7614 8.86342 11.8634 8.76144 11.9273 8.63599C12 8.49339 12 8.3067 12 7.93333V4.06667Z" fill="white"/>
<path d="M7.06667 10.3333C6.6933 10.3333 6.50661 10.3333 6.36401 10.406C6.23857 10.4699 6.13658 10.5719 6.07266 10.6973C6 10.8399 6 11.0266 6 11.4V13.559C5.99999 13.9105 5.99998 14.2136 6.02038 14.4634C6.04192 14.7269 6.08946 14.9891 6.21799 15.2413C6.40974 15.6176 6.7157 15.9236 7.09202 16.1153C7.34427 16.2439 7.60642 16.2914 7.86998 16.313C8.11969 16.3334 8.42286 16.3333 8.77429 16.3333H10.9333C11.3067 16.3333 11.4934 16.3333 11.636 16.2607C11.7614 16.1968 11.8634 16.0948 11.9273 15.9693C12 15.8267 12 15.64 12 15.2667V11.4C12 11.0266 12 10.8399 11.9273 10.6973C11.8634 10.5719 11.7614 10.4699 11.636 10.406C11.4934 10.3333 11.3067 10.3333 10.9333 10.3333H7.06667Z" fill="white"/>
<path d="M13.3333 15.2667C13.3333 15.64 13.3333 15.8267 13.406 15.9693C13.4699 16.0948 13.5719 16.1968 13.6973 16.2607C13.8399 16.3333 14.0266 16.3333 14.4 16.3333H16.559C16.9105 16.3333 17.2136 16.3334 17.4634 16.313C17.7269 16.2914 17.9891 16.2439 18.2413 16.1153C18.6176 15.9236 18.9236 15.6176 19.1153 15.2413C19.2439 14.9891 19.2914 14.7269 19.313 14.4634C19.3334 14.2136 19.3333 13.9105 19.3333 13.559V11.4C19.3333 11.0266 19.3333 10.8399 19.2607 10.6973C19.1968 10.5719 19.0948 10.4699 18.9693 10.406C18.8267 10.3333 18.64 10.3333 18.2667 10.3333H14.4C14.0266 10.3333 13.8399 10.3333 13.6973 10.406C13.5719 10.4699 13.4699 10.5719 13.406 10.6973C13.3333 10.8399 13.3333 11.0266 13.3333 11.4V15.2667Z" fill="white"/>
<path d="M19.3333 7.93333C19.3333 8.3067 19.3333 8.49339 19.2607 8.63599C19.1968 8.76144 19.0948 8.86342 18.9693 8.92734C18.8267 9 18.64 9 18.2667 9H14.4C14.0266 9 13.8399 9 13.6973 8.92734C13.5719 8.86342 13.4699 8.76144 13.406 8.63599C13.3333 8.49339 13.3333 8.3067 13.3333 7.93333V4.06667C13.3333 3.6933 13.3333 3.50661 13.406 3.36401C13.4699 3.23857 13.5719 3.13658 13.6973 3.07266C13.8399 3 14.0266 3 14.4 3H16.559C16.9105 2.99999 17.2136 2.99998 17.4634 3.02038C17.7269 3.04192 17.9891 3.08946 18.2413 3.21799C18.6176 3.40974 18.9236 3.7157 19.1153 4.09202C19.2439 4.34427 19.2914 4.60642 19.313 4.86998C19.3334 5.11969 19.3333 5.42286 19.3333 5.77429V7.93333Z" fill="white"/>
</g>
<defs>
<filter id="filter0_d_6513_605" x="-1.33337" y="-1.33333" width="28" height="28" filterUnits="userSpaceOnUse" color-interpolation-filters="sRGB">
<feFlood flood-opacity="0" result="BackgroundImageFix"/>
<feColorMatrix in="SourceAlpha" type="matrix" values="0 0 0 0 0 0 0 0 0 0 0 0 0 0 0 0 0 0 127 0" result="hardAlpha"/>
<feOffset dy="3"/>
<feGaussianBlur stdDeviation="3"/>
<feComposite in2="hardAlpha" operator="out"/>
<feColorMatrix type="matrix" values="0 0 0 0 0.947322 0 0 0 0 0.947322 0 0 0 0 0.947322 0 0 0 0.12 0"/>
<feBlend mode="normal" in2="BackgroundImageFix" result="effect1_dropShadow_6513_605"/>
<feBlend mode="normal" in="SourceGraphic" in2="effect1_dropShadow_6513_605" result="shape"/>
</filter>
</defs>
</svg>
