<svg width="14" height="14" viewBox="0 0 14 14" fill="none" xmlns="http://www.w3.org/2000/svg">
<path opacity="0.12" d="M12.1283 7.35431C12.2707 7.23225 12.3419 7.17122 12.368 7.09859C12.3909 7.03485 12.3909 6.96513 12.368 6.90138C12.3419 6.82876 12.2707 6.76773 12.1283 6.64567L7.18704 2.4103C6.9419 2.20019 6.81934 2.09513 6.71557 2.09256C6.62538 2.09032 6.53924 2.12994 6.48224 2.19987C6.41667 2.28033 6.41667 2.44176 6.41667 2.76462V5.27019C5.17144 5.48804 4.03176 6.11901 3.18483 7.06641C2.26148 8.09929 1.75072 9.43596 1.75 10.8214V11.1784C2.36212 10.441 3.12638 9.84462 3.99044 9.43011C4.75224 9.06465 5.57574 8.84817 6.41667 8.79113V11.2354C6.41667 11.5582 6.41667 11.7196 6.48224 11.8001C6.53924 11.87 6.62538 11.9097 6.71557 11.9074C6.81934 11.9048 6.9419 11.7998 7.18704 11.5897L12.1283 7.35431Z" fill="black"/>
<path d="M12.1283 7.35431C12.2707 7.23225 12.3419 7.17122 12.368 7.09859C12.3909 7.03485 12.3909 6.96513 12.368 6.90138C12.3419 6.82876 12.2707 6.76773 12.1283 6.64567L7.18704 2.4103C6.9419 2.20019 6.81934 2.09513 6.71557 2.09256C6.62538 2.09032 6.53924 2.12994 6.48224 2.19987C6.41667 2.28033 6.41667 2.44176 6.41667 2.76462V5.27019C5.17144 5.48804 4.03176 6.11901 3.18483 7.06641C2.26148 8.09929 1.75072 9.43595 1.75 10.8214V11.1784C2.36212 10.441 3.12638 9.84462 3.99044 9.43011C4.75224 9.06465 5.57574 8.84817 6.41667 8.79113V11.2354C6.41667 11.5582 6.41667 11.7196 6.48224 11.8001C6.53924 11.87 6.62538 11.9097 6.71557 11.9074C6.81934 11.9048 6.9419 11.7998 7.18704 11.5897L12.1283 7.35431Z" stroke="#97A3B6" stroke-width="1.16667" stroke-linecap="round" stroke-linejoin="round"/>
</svg>
