<svg width="16" height="16" viewBox="0 0 16 16" fill="none" xmlns="http://www.w3.org/2000/svg">
<g clip-path="url(#clip0_6404_2540)">
<path d="M8 16C12.4183 16 16 12.4183 16 7.99998C16 3.58171 12.4183 -1.52588e-05 8 -1.52588e-05C3.58172 -1.52588e-05 0 3.58171 0 7.99998C0 12.4183 3.58172 16 8 16Z" fill="#627EEA"/>
<path d="M8.24902 1.99999V6.43499L11.9975 8.10999L8.24902 1.99999Z" fill="white" fill-opacity="0.602"/>
<path d="M8.249 1.99998L4.5 8.10999L8.249 6.43499V1.99998Z" fill="white"/>
<path d="M8.24902 10.9841V13.9976L12 8.80809L8.24902 10.9841Z" fill="white" fill-opacity="0.602"/>
<path d="M8.249 13.9976V10.9836L4.5 8.80809L8.249 13.9976Z" fill="white"/>
<path d="M8.24902 10.2865L11.9975 8.11002L8.24902 6.43602V10.2865Z" fill="white" fill-opacity="0.2"/>
<path d="M4.5 8.11002L8.249 10.2865V6.43602L4.5 8.11002Z" fill="white" fill-opacity="0.602"/>
</g>
<defs>
<clipPath id="clip0_6404_2540">
<rect width="16" height="16" rx="3.62027" fill="white"/>
</clipPath>
</defs>
</svg>
