<svg width="16" height="16" viewBox="0 0 16 16" fill="none" xmlns="http://www.w3.org/2000/svg">
<path d="M8.40844 1.33333H7.59156L6.25823 5.33333H9.74178L8.40844 1.33333Z" fill="#677489"/>
<path d="M9.74168 6.66666H6.25833L8 11.8917L9.74168 6.66666Z" fill="#677489"/>
<path d="M4.85277 5.33333L6.18611 1.33333H4.8228C4.52602 1.33333 4.24457 1.46515 4.05458 1.69314L1.4767 4.7866C1.29578 5.00371 1.45016 5.33333 1.73277 5.33333H4.85277Z" fill="#677489"/>
<path d="M1.4767 7.21339C1.29578 6.99628 1.45016 6.66666 1.73278 6.66666H4.85287L7.19398 13.69C7.24506 13.8432 7.07707 13.9465 6.97754 13.8193C6.943 13.7752 6.90863 13.7317 6.87388 13.69L1.4767 7.21339Z" fill="#677489"/>
<path d="M11.1471 6.66666H14.2672C14.5499 6.66666 14.7042 6.99628 14.5233 7.21339L9.12614 13.69C9.09139 13.7317 9.05702 13.7752 9.02248 13.8194C8.92295 13.9465 8.75495 13.8432 8.80602 13.69L11.1471 6.66666Z" fill="#677489"/>
<path d="M14.5233 4.7866C14.7042 5.00371 14.5499 5.33333 14.2672 5.33333H11.1472L9.8139 1.33333H11.1772C11.474 1.33333 11.7554 1.46515 11.9454 1.69314L14.5233 4.7866Z" fill="#677489"/>
</svg>
