<svg width="16" height="16" viewBox="0 0 16 16" fill="none" xmlns="http://www.w3.org/2000/svg">
<path d="M3.52855 0.861934C3.7889 0.601584 4.21101 0.601584 4.47136 0.861934L5.8047 2.19527C6.06505 2.45562 6.06505 2.87773 5.8047 3.13808L4.47136 4.47141C4.21101 4.73176 3.7889 4.73176 3.52855 4.47141C3.26821 4.21106 3.26821 3.78895 3.52855 3.5286L3.70173 3.35542C2.73861 3.49941 1.99996 4.33011 1.99996 5.33334C1.99996 5.70153 1.70148 6.00001 1.33329 6.00001C0.965103 6.00001 0.666626 5.70153 0.666626 5.33334C0.666626 3.58182 2.01753 2.14583 3.73425 2.01044L3.52855 1.80474C3.26821 1.54439 3.26821 1.12228 3.52855 0.861934Z" fill="#677489"/>
<path d="M12.4714 11.5286C12.7317 11.789 12.7317 12.2111 12.4714 12.4714L12.2982 12.6446C13.2613 12.5006 14 11.6699 14 10.6667C14 10.2985 14.2984 10 14.6666 10C15.0348 10 15.3333 10.2985 15.3333 10.6667C15.3333 12.4182 13.9824 13.8542 12.2657 13.9896L12.4714 14.1953C12.7317 14.4556 12.7317 14.8777 12.4714 15.1381C12.211 15.3984 11.7889 15.3984 11.5286 15.1381L10.1952 13.8047C10.0702 13.6797 9.99996 13.5101 9.99996 13.3333C9.99996 13.1565 10.0702 12.987 10.1952 12.8619L11.5286 11.5286C11.7889 11.2683 12.211 11.2683 12.4714 11.5286Z" fill="#677489"/>
<path d="M6.04149 4.70803C6.34704 2.42637 8.30133 0.666672 10.6666 0.666672C13.244 0.666672 15.3333 2.75601 15.3333 5.33334C15.3333 7.69863 13.5736 9.65292 11.2919 9.95847C10.9688 7.2108 8.78917 5.03112 6.04149 4.70803Z" fill="#677489"/>
<path d="M5.33329 6.00001C2.75596 6.00001 0.666626 8.08934 0.666626 10.6667C0.666626 13.244 2.75596 15.3333 5.33329 15.3333C7.91062 15.3333 9.99996 13.244 9.99996 10.6667C9.99996 8.08934 7.91062 6.00001 5.33329 6.00001Z" fill="#677489"/>
</svg>
