<svg width="16" height="16" viewBox="0 0 16 16" fill="none" xmlns="http://www.w3.org/2000/svg">
<path d="M10.3333 9.50001C10.3333 9.96024 9.9602 10.3333 9.49996 10.3333H6.99996V8.66667H9.49996C9.9602 8.66667 10.3333 9.03977 10.3333 9.50001Z" fill="#677489"/>
<path d="M9.16663 5.66667H6.99996V7.33334H9.16663C9.62686 7.33334 9.99996 6.96024 9.99996 6.50001C9.99996 6.03977 9.62686 5.66667 9.16663 5.66667Z" fill="#677489"/>
<path fill-rule="evenodd" clip-rule="evenodd" d="M7.99996 0.666672C3.94987 0.666672 0.666626 3.94992 0.666626 8.00001C0.666626 12.0501 3.94987 15.3333 7.99996 15.3333C12.05 15.3333 15.3333 12.0501 15.3333 8.00001C15.3333 3.94992 12.05 0.666672 7.99996 0.666672ZM6.66663 3.33334C7.03482 3.33334 7.33329 3.63182 7.33329 4.00001V4.33334H7.99996V4.00001C7.99996 3.63182 8.29844 3.33334 8.66663 3.33334C9.03482 3.33334 9.33329 3.63182 9.33329 4.00001V4.33965C10.452 4.42476 11.3333 5.35947 11.3333 6.50001C11.3333 7.00058 11.1635 7.4615 10.8785 7.82835C11.3598 8.22575 11.6666 8.82705 11.6666 9.50001C11.6666 10.6966 10.6966 11.6667 9.49996 11.6667H9.33329V12C9.33329 12.3682 9.03482 12.6667 8.66663 12.6667C8.29844 12.6667 7.99996 12.3682 7.99996 12V11.6667H7.33329V12C7.33329 12.3682 7.03482 12.6667 6.66663 12.6667C6.29844 12.6667 5.99996 12.3682 5.99996 12V11.6667H5.33329C4.9651 11.6667 4.66663 11.3682 4.66663 11C4.66663 10.6318 4.9651 10.3333 5.33329 10.3333H5.66663V5.66667H5.33329C4.9651 5.66667 4.66663 5.3682 4.66663 5.00001C4.66663 4.63182 4.9651 4.33334 5.33329 4.33334H5.99996V4.00001C5.99996 3.63182 6.29844 3.33334 6.66663 3.33334Z" fill="#677489"/>
</svg>
