<svg width="16" height="16" viewBox="0 0 16 16" fill="none" xmlns="http://www.w3.org/2000/svg">
<path d="M5.36986 2.60716C5.70079 2.44576 5.83822 2.04665 5.67681 1.71572C5.51541 1.38479 5.11629 1.24737 4.78537 1.40877C3.39345 2.08765 2.25219 3.18976 1.52514 4.55714C0.798094 5.92451 0.522593 7.48695 0.738124 9.02053C0.789366 9.38514 1.12648 9.63917 1.49108 9.58793C1.85569 9.53668 2.10972 9.19957 2.05848 8.83497C1.88214 7.58022 2.10755 6.30186 2.7024 5.1831C3.29726 4.06434 4.23102 3.16261 5.36986 2.60716Z" fill="#677489"/>
<path d="M10.3233 1.71572C10.4847 1.38479 10.8838 1.24737 11.2147 1.40877C12.6067 2.08765 13.7479 3.18976 14.475 4.55713C15.202 5.92451 15.4775 7.48695 15.262 9.02053C15.2107 9.38513 14.8736 9.63917 14.509 9.58792C14.1444 9.53668 13.8904 9.19957 13.9416 8.83496C14.118 7.58022 13.8926 6.30186 13.2977 5.1831C12.7028 4.06434 11.7691 3.16261 10.6302 2.60716C10.2993 2.44576 10.1619 2.04665 10.3233 1.71572Z" fill="#677489"/>
<path d="M3.5421 13.0017C3.75852 12.7039 4.17543 12.6378 4.4733 12.8543C5.49839 13.599 6.73294 14.0002 8.00002 14.0002C9.26709 14.0002 10.5016 13.599 11.5267 12.8543C11.8246 12.6378 12.2415 12.7039 12.4579 13.0017C12.6743 13.2996 12.6083 13.7165 12.3104 13.9329C11.0576 14.8432 9.54866 15.3335 8.00002 15.3335C6.45137 15.3335 4.94247 14.8432 3.68959 13.9329C3.39172 13.7165 3.32569 13.2996 3.5421 13.0017Z" fill="#677489"/>
<path d="M8.65057 3.71725C8.57652 3.65439 8.46412 3.57069 8.30903 3.5203C8.10818 3.45504 7.89184 3.45504 7.69099 3.5203C7.5359 3.57069 7.4235 3.65439 7.34946 3.71725C7.28555 3.7715 7.21852 3.83858 7.16239 3.89476L3.89482 7.16233C3.83864 7.21846 3.77156 7.2855 3.71731 7.3494C3.65445 7.42345 3.57075 7.53585 3.52036 7.69094C3.4551 7.89178 3.4551 8.10813 3.52036 8.30897C3.57075 8.46406 3.65445 8.57646 3.71731 8.65051C3.77156 8.71441 3.83865 8.78145 3.89483 8.83758L7.16239 12.1051C7.21852 12.1613 7.28555 12.2284 7.34946 12.2827C7.42351 12.3455 7.53591 12.4292 7.69099 12.4796C7.89184 12.5449 8.10818 12.5449 8.30903 12.4796C8.46412 12.4292 8.57652 12.3455 8.65057 12.2827C8.71447 12.2284 8.78152 12.1613 8.83765 12.1051L12.1052 8.83758C12.1614 8.78145 12.2285 8.71441 12.2827 8.65051C12.3456 8.57646 12.4293 8.46406 12.4797 8.30897C12.5449 8.10813 12.5449 7.89178 12.4797 7.69094C12.4293 7.53585 12.3456 7.42345 12.2827 7.3494C12.2285 7.28549 12.1614 7.21845 12.1052 7.16232L8.83763 3.89476C8.7815 3.83858 8.71447 3.7715 8.65057 3.71725Z" fill="#677489"/>
</svg>
