<svg width="18" height="18" viewBox="0 0 18 18" fill="none" xmlns="http://www.w3.org/2000/svg">
<path fill-rule="evenodd" clip-rule="evenodd" d="M8.24988 1.50006C4.52196 1.50006 1.49988 4.52214 1.49988 8.25006C1.49988 11.978 4.52196 15.0001 8.24988 15.0001C9.84364 15.0001 11.3084 14.4477 12.4631 13.524L15.2195 16.2804C15.5124 16.5733 15.9873 16.5733 16.2802 16.2804C16.5731 15.9875 16.5731 15.5126 16.2802 15.2197L13.5238 12.4633C14.4475 11.3086 14.9999 9.84382 14.9999 8.25006C14.9999 4.52214 11.9778 1.50006 8.24988 1.50006ZM2.99988 8.25006C2.99988 5.35057 5.35038 3.00006 8.24988 3.00006C11.1494 3.00006 13.4999 5.35057 13.4999 8.25006C13.4999 11.1496 11.1494 13.5001 8.24988 13.5001C5.35038 13.5001 2.99988 11.1496 2.99988 8.25006Z" fill="#677489"/>
</svg>
