<svg width="16" height="16" viewBox="0 0 16 16" fill="none" xmlns="http://www.w3.org/2000/svg">
<path fill-rule="evenodd" clip-rule="evenodd" d="M5.68179 0.666631L5.64777 0.66657C5.52116 0.666232 5.36173 0.665806 5.20485 0.703471C5.0688 0.736134 4.93874 0.790006 4.81944 0.863111C4.68187 0.947413 4.56944 1.06044 4.48016 1.15021L4.45614 1.17431L1.17431 4.45614L1.15021 4.48016C1.06045 4.56944 0.947414 4.68187 0.863111 4.81944C0.790006 4.93874 0.736134 5.0688 0.703471 5.20485C0.665806 5.36173 0.666232 5.52116 0.66657 5.64777L0.666631 5.68179V10.3181L0.66657 10.3522C0.666232 10.4788 0.665806 10.6382 0.703471 10.7951C0.736134 10.9311 0.790006 11.0612 0.863111 11.1805C0.947415 11.3181 1.06045 11.4305 1.15021 11.5198L1.17431 11.5438L4.45614 14.8256L4.48016 14.8497C4.56945 14.9395 4.68188 15.0525 4.81944 15.1368C4.93874 15.2099 5.0688 15.2638 5.20485 15.2965C5.36174 15.3341 5.52116 15.3337 5.64777 15.3334L5.68179 15.3333H10.3181L10.3522 15.3334C10.4788 15.3337 10.6382 15.3341 10.7951 15.2965C10.9311 15.2638 11.0612 15.2099 11.1805 15.1368C11.3181 15.0525 11.4305 14.9395 11.5198 14.8497L11.5438 14.8256L14.8256 11.5438L14.8497 11.5198C14.9395 11.4305 15.0525 11.3181 15.1368 11.1805C15.2099 11.0612 15.2638 10.9311 15.2965 10.7951C15.3341 10.6382 15.3337 10.4788 15.3334 10.3522L15.3333 10.3181V5.68179L15.3334 5.64777C15.3337 5.52116 15.3341 5.36174 15.2965 5.20485C15.2638 5.0688 15.2099 4.93874 15.1368 4.81944C15.0525 4.68188 14.9395 4.56945 14.8497 4.48017L14.8256 4.45614L11.5438 1.17431L11.5198 1.15021C11.4305 1.06045 11.3181 0.947414 11.1805 0.863111C11.0612 0.790006 10.9311 0.736134 10.7951 0.703471C10.6382 0.665806 10.4788 0.666232 10.3522 0.66657L10.3181 0.666631H5.68179ZM7.27105 5.51415C7.54251 5.35461 7.86169 5.29629 8.17203 5.34952C8.48238 5.40275 8.76388 5.5641 8.96666 5.80499C9.16944 6.04588 9.28043 6.35077 9.27996 6.66565L9.27996 6.66664C9.27996 6.9794 9.03656 7.30545 8.57682 7.61194C8.36724 7.75166 8.15292 7.8593 7.98836 7.93243C7.90703 7.96858 7.84018 7.99527 7.79523 8.0124C7.77528 8.02 7.75525 8.02735 7.73511 8.03442C7.38626 8.15112 7.19781 8.5284 7.31417 8.87746C7.4306 9.22676 7.80815 9.41553 8.15744 9.2991L8.26989 9.25838C8.33431 9.23384 8.42371 9.19804 8.52988 9.15085C8.74032 9.05732 9.026 8.91496 9.31642 8.72134C9.85658 8.36123 10.613 7.68749 10.6133 6.66725C10.6141 6.03763 10.3922 5.42801 9.98669 4.94633C9.58113 4.46455 9.01814 4.14184 8.39744 4.03538C7.77675 3.92891 7.13841 4.04555 6.59547 4.36464C6.05253 4.68373 5.64005 5.18467 5.43107 5.77875C5.30888 6.12607 5.4914 6.50668 5.83873 6.62886C6.18605 6.75105 6.56666 6.56853 6.68885 6.2212C6.79334 5.92417 6.99958 5.6737 7.27105 5.51415ZM7.99996 10.6666C7.63177 10.6666 7.33329 10.9651 7.33329 11.3333C7.33329 11.7015 7.63177 12 7.99996 12H8.00662C8.37481 12 8.67329 11.7015 8.67329 11.3333C8.67329 10.9651 8.37481 10.6666 8.00662 10.6666H7.99996Z" fill="#677489"/>
</svg>
