<svg width="14" height="14" viewBox="0 0 14 14" fill="none" xmlns="http://www.w3.org/2000/svg">
<path d="M1.16663 2.68333C1.16663 2.35664 1.16663 2.19329 1.23021 2.06851C1.28613 1.95874 1.37537 1.86951 1.48513 1.81358C1.60991 1.75 1.77326 1.75 2.09996 1.75H11.9C12.2267 1.75 12.39 1.75 12.5148 1.81358C12.6245 1.86951 12.7138 1.95874 12.7697 2.06851C12.8333 2.19329 12.8333 2.35664 12.8333 2.68333V3.07381C12.8333 3.23061 12.8333 3.30901 12.8141 3.38191C12.7972 3.44651 12.7692 3.50772 12.7315 3.56286C12.689 3.62509 12.6297 3.67643 12.5112 3.77912L8.78036 7.01254C8.66187 7.11524 8.60262 7.16658 8.56008 7.22881C8.52238 7.28395 8.49443 7.34515 8.47745 7.40976C8.45829 7.48266 8.45829 7.56106 8.45829 7.71785V10.7674C8.45829 10.8815 8.45829 10.9385 8.43989 10.9878C8.42364 11.0314 8.3972 11.0704 8.36277 11.1017C8.32382 11.1371 8.27086 11.1583 8.16494 11.2007L6.18161 11.994C5.96721 12.0798 5.86001 12.1226 5.77395 12.1048C5.6987 12.0891 5.63266 12.0444 5.59019 11.9804C5.54163 11.9071 5.54163 11.7916 5.54163 11.5607V7.71785C5.54163 7.56106 5.54163 7.48266 5.52247 7.40976C5.50549 7.34515 5.47754 7.28395 5.43984 7.22881C5.3973 7.16658 5.33805 7.11524 5.21956 7.01254L1.48869 3.77912C1.3702 3.67643 1.31095 3.62509 1.26841 3.56286C1.23071 3.50772 1.20277 3.44651 1.18579 3.38191C1.16663 3.30901 1.16663 3.23061 1.16663 3.07381V2.68333Z" stroke="#97A3B6" stroke-width="1.16667" stroke-linecap="round" stroke-linejoin="round"/>
</svg>
