<svg width="16" height="16" viewBox="0 0 16 16" fill="none" xmlns="http://www.w3.org/2000/svg">
<path fill-rule="evenodd" clip-rule="evenodd" d="M3.77964 3.33335C3.70543 3.12091 3.66663 2.89561 3.66663 2.66669C3.66663 2.14009 3.87197 1.6327 4.24121 1.25674C4.61086 0.880374 5.11478 0.666687 5.64282 0.666687C6.83929 0.666687 7.58165 1.47899 7.99996 2.18151C8.41827 1.47899 9.16064 0.666687 10.3571 0.666687C10.8851 0.666687 11.3891 0.880374 11.7587 1.25674C12.128 1.6327 12.3333 2.14009 12.3333 2.66669C12.3333 2.89561 12.2945 3.12091 12.2203 3.33336L13.6843 3.33336C13.8243 3.33334 13.9607 3.33333 14.0768 3.34125C14.2037 3.34991 14.3542 3.37022 14.5102 3.43485C14.8369 3.57018 15.0965 3.82974 15.2318 4.15645C15.2964 4.31248 15.3168 4.46296 15.3254 4.58987C15.3333 4.70586 15.3333 4.8423 15.3333 4.98224V5.0178C15.3333 5.15774 15.3333 5.29419 15.3254 5.41018C15.3168 5.53709 15.2964 5.68757 15.2318 5.8436C15.0965 6.17031 14.8369 6.42987 14.5102 6.5652C14.3542 6.62983 14.2037 6.65014 14.0768 6.6588C13.9607 6.66672 13.8243 6.66671 13.6843 6.66669H2.31564C2.17562 6.66671 2.0392 6.66672 1.92315 6.6588C1.79623 6.65014 1.64575 6.62983 1.48972 6.5652C1.16302 6.42987 0.90345 6.17031 0.768125 5.8436C0.703496 5.68757 0.68318 5.53709 0.674521 5.41018C0.666605 5.29416 0.666616 5.15775 0.666627 5.01778V4.98231C0.666616 4.84234 0.666605 4.70588 0.674521 4.58987C0.68318 4.46296 0.703496 4.31248 0.768125 4.15645C0.90345 3.82974 1.16302 3.57018 1.48972 3.43485C1.64575 3.37022 1.79623 3.34991 1.92315 3.34125C2.03917 3.33333 2.17566 3.33334 2.31565 3.33335L3.77964 3.33335ZM5.64282 2.00002C5.47624 2.00002 5.314 2.06728 5.19248 2.19102C5.07055 2.31516 4.99996 2.48604 4.99996 2.66669C4.99996 2.84734 5.07055 3.01822 5.19248 3.14236C5.314 3.26609 5.47624 3.33335 5.64282 3.33335H7.08946C7.0412 3.21912 6.98567 3.10079 6.92233 2.98353C6.59842 2.38389 6.18261 2.00002 5.64282 2.00002ZM8.91047 3.33335C8.95872 3.21912 9.01426 3.10079 9.0776 2.98353C9.40151 2.38389 9.81732 2.00002 10.3571 2.00002C10.5237 2.00002 10.6859 2.06728 10.8075 2.19102C10.9294 2.31516 11 2.48604 11 2.66669C11 2.84734 10.9294 3.01822 10.8075 3.14236C10.6859 3.26609 10.5237 3.33335 10.3571 3.33335H8.91047Z" fill="#677489"/>
<path d="M1.99996 8.66669C1.99996 8.2985 2.29844 8.00002 2.66663 8.00002H6.79996C6.98665 8.00002 7.07999 8.00002 7.15129 8.03635C7.21401 8.06831 7.26501 8.1193 7.29696 8.18203C7.33329 8.25333 7.33329 8.34667 7.33329 8.53336V14.8C7.33329 14.9867 7.33329 15.08 7.29696 15.1514C7.26501 15.2141 7.21401 15.2651 7.15129 15.297C7.07999 15.3334 6.98665 15.3334 6.79996 15.3334H4.7742C4.42284 15.3334 4.11962 15.3334 3.86994 15.313C3.60638 15.2914 3.34424 15.2439 3.09198 15.1154C2.71566 14.9236 2.4097 14.6177 2.21795 14.2413C2.08942 13.9891 2.04188 13.7269 2.02034 13.4634C1.99994 13.2137 1.99995 12.9105 1.99996 12.5591L1.99996 8.66669Z" fill="#677489"/>
<path d="M12.13 15.313C11.8803 15.3334 11.5771 15.3334 11.2256 15.3334H9.19996C9.01328 15.3334 8.91994 15.3334 8.84863 15.297C8.78591 15.2651 8.73492 15.2141 8.70296 15.1514C8.66663 15.08 8.66663 14.9867 8.66663 14.8V8.53336C8.66663 8.34667 8.66663 8.25333 8.70296 8.18203C8.73492 8.1193 8.78591 8.06831 8.84863 8.03635C8.91994 8.00002 9.01328 8.00002 9.19996 8.00002H13.3333C13.7015 8.00002 14 8.2985 14 8.66669V12.5591C14 12.9105 14 13.2137 13.9796 13.4634C13.9581 13.7269 13.9105 13.9891 13.782 14.2413C13.5902 14.6177 13.2843 14.9236 12.9079 15.1154C12.6557 15.2439 12.3935 15.2914 12.13 15.313Z" fill="#677489"/>
</svg>
