<svg width="14" height="14" viewBox="0 0 14 14" fill="none" xmlns="http://www.w3.org/2000/svg">
<path d="M4.08333 4.95833H7M4.08333 7H8.75M5.64885 10.5H9.45C10.4301 10.5 10.9201 10.5 11.2945 10.3093C11.6238 10.1415 11.8915 9.87377 12.0593 9.54448C12.25 9.17014 12.25 8.68009 12.25 7.7V4.55C12.25 3.56991 12.25 3.07986 12.0593 2.70552C11.8915 2.37623 11.6238 2.10852 11.2945 1.94074C10.9201 1.75 10.4301 1.75 9.45 1.75H4.55C3.56991 1.75 3.07986 1.75 2.70552 1.94074C2.37623 2.10852 2.10852 2.37623 1.94074 2.70552C1.75 3.07986 1.75 3.56991 1.75 4.55V11.8624C1.75 12.1732 1.75 12.3286 1.81372 12.4084C1.86913 12.4779 1.95316 12.5182 2.04198 12.5182C2.14412 12.518 2.26547 12.421 2.50819 12.2268L3.89971 11.1136C4.18397 10.8862 4.3261 10.7725 4.48437 10.6916C4.62478 10.6199 4.77425 10.5674 4.92871 10.5357C5.10281 10.5 5.28482 10.5 5.64885 10.5Z" stroke="#97A3B6" stroke-width="1.16667" stroke-linecap="round" stroke-linejoin="round"/>
</svg>
