<svg width="12" height="12" viewBox="0 0 12 12" fill="none" xmlns="http://www.w3.org/2000/svg">
<path d="M8.35355 1.14645C8.15829 0.951184 7.84171 0.951184 7.64645 1.14645C7.45118 1.34171 7.45118 1.65829 7.64645 1.85355L8.79289 3L2 3C1.72386 3 1.5 3.22386 1.5 3.5C1.5 3.77614 1.72386 4 2 4L8.79289 4L7.64645 5.14645C7.45118 5.34171 7.45118 5.65829 7.64645 5.85355C7.84171 6.04882 8.15829 6.04882 8.35355 5.85355L10.3536 3.85355C10.5488 3.65829 10.5488 3.34171 10.3536 3.14645L8.35355 1.14645Z" fill="white"/>
<path d="M4.35355 6.85355C4.54882 6.65829 4.54882 6.34171 4.35355 6.14645C4.15829 5.95118 3.84171 5.95118 3.64645 6.14645L1.64645 8.14645C1.45118 8.34171 1.45118 8.65829 1.64645 8.85355L3.64645 10.8536C3.84171 11.0488 4.15829 11.0488 4.35355 10.8536C4.54882 10.6583 4.54882 10.3417 4.35355 10.1464L3.20711 9H10C10.2761 9 10.5 8.77614 10.5 8.5C10.5 8.22386 10.2761 8 10 8L3.20711 8L4.35355 6.85355Z" fill="white"/>
</svg>
